# AST/ASF file generated using VICON BodyLanguage
# -----------------------------------------------
:version 1.10
:name VICON
:units
  mass 1.0
  length 0.45
  angle deg
:documentation
   .ast/.asf automatically generated from VICON data using
   VICON BodyBuilder and BodyLanguage model FoxedUp or BRILLIANT.MOD
:root
   order TX TY TZ RX RY RZ
   axis XYZ
   position 0 0 0  
   orientation 0 0 0 
:bonedata
  begin
     id 1 
     name lhipjoint
     direction 0.61886 -0.69539 0.365302 
     length 2.20474 
     axis 0 0 0  XYZ
  end
  begin
     id 2 
     name lfemur
     direction 0.34202 -0.939693 0  
     length 6.65149  
     axis 0 0 20  XYZ
    dof rx ry rz
    limits (-160.0 20.0)
           (-70.0 70.0)
           (-60.0 70.0)
  end
  begin
     id 3 
     name ltibia
     direction 0.34202 -0.939693 0   
     length 6.35814   
     axis 0 0 20   XYZ
    dof rx
    limits (-10.0 170.0)
  end
  begin
     id 4 
     name lfoot
     direction 0.101224 -0.278109 0.955201   
     length 2.18766   
     axis -90 7.62852e-016 20   XYZ
    dof rx rz
    limits (-45.0 90.0)
           (-70.0 20.0)
  end
  begin
     id 5 
     name ltoes
     direction 1.53524e-011 -4.21877e-011 1   
     length 1.09206   
     axis -90 7.62852e-016 20   XYZ
    dof rx
    limits (-90.0 20.0)
  end
  begin
     id 6 
     name rhipjoint
     direction -0.600207 -0.708087 0.371972   
     length 2.1652  
     axis 0 0 0  XYZ 
  end
  begin
     id 7 
     name rfemur
     direction -0.34202 -0.939693 0   
     length 6.54691   
     axis 0 0 -20   XYZ
    dof rx ry rz
    limits (-160.0 20.0)
           (-70.0 70.0)
           (-70.0 60.0)
  end
  begin
     id 8 
     name rtibia
     direction -0.34202 -0.939693 0   
     length 6.37474   
     axis 0 0 -20   XYZ
    dof rx
    limits (-10.0 170.0)
 end
 begin
     id 9 
     name rfoot
     direction -0.111266 -0.3057 0.945604   
     length 2.00903  
     axis -90 -7.62852e-016 -20   XYZ
    dof rx rz
    limits (-45.0 90.0)
           (-20.0 70.0)
  end
  begin
     id 10 
     name rtoes
     direction -1.5362e-011 -4.21913e-011 1   
     length 1.00221   
     axis -90 -7.62852e-016 -20   XYZ
    dof rx
    limits (-90.0 20.0)
  end
  begin
     id 11 
     name lowerback
     direction -0.0224561 0.999731 -0.00577314   
     length 2.10409   
     axis 0 0 0   XYZ
    dof rx ry rz
    limits (-20.0 45.0)
           (-30.0 30.0)
           (-30.0 30.0)
  end
  begin
     id 12 
     name upperback
     direction 0.0213126 0.999185 -0.0342817   
     length 2.09783   
     axis 0 0 0   XYZ
    dof rx ry rz
    limits (-20.0 45.0)
           (-30.0 30.0)
           (-30.0 30.0)
  end
  begin
     id 13 
     name thorax
     direction 0.0312356 0.999036 -0.0308451   
     length 2.09788   
     axis 0 0 0   XYZ
    dof rx ry rz
    limits (-20.0 45.0)
           (-30.0 30.0)
           (-30.0 30.0)
  end
  begin
     id 14 
     name lowerneck
     direction -0.0114419 0.996481 0.0830329   
     length 1.38575   
     axis 0 0 0   XYZ
    dof rx ry rz
    limits (-20.0 45.0)
           (-30.0 30.0)
           (-30.0 30.0)
  end
  begin
     id 15 
     name upperneck
     direction -0.0075675 0.996187 -0.0869092   
     length 1.39401   
     axis 0 0 0   XYZ
    dof rx ry rz
    limits (-20.0 45.0)
           (-30.0 30.0)
           (-30.0 30.0)
  end
  begin
     id 16
     name head
     direction -0.00222073 0.999264 -0.0382974  
     length 1.3964  
     axis 0 0 0   XYZ
    dof rx ry rz
    limits (-20.0 45.0)
           (-30.0 30.0)
           (-30.0 30.0)
  end
  begin
     id 17 
     name lclavicle
     direction 0.965962 0.222138 0.132556  
     length 2.81514  
     axis 0 0 0   XYZ
    dof ry rz
    limits (-20.0 10.0)
           (0.0 20.0)
  end
  begin
     id 18 
     name lhumerus
     direction 1 -4.48972e-011 7.03471e-018   
     length 4.47366   
     axis 180 -30 -90   XYZ
    dof rx ry rz
    limits (-60.0 90.0)
           (-90.0 90.0)
           (-90.0 90.0)
  end
  begin
     id 19
     name lradius
     direction 1 -4.48951e-011 -6.22192e-028   
     length 3.19948   
     axis 180 -30 -90   XYZ
    dof rx
    limits (-10.0 170.0)
  end
  begin
     id 20
     name lwrist
     direction 1 -4.48967e-011 -1.24264e-027   
     length 1.59974   
     axis 1.40095e-015 90 90   XYZ
    dof ry
    limits (-180.0 0.0)
 end
  begin
     id 21 
     name lhand
     direction 1 -4.4897e-011 -2.48528e-027   
     length 0.492667   
     axis 1.58582e-015 90 90   XYZ
    dof rx rz
    limits (-90.0 90.0)
           (-45.0 45.0)
  end
  begin
     id 22 
     name lfingers
     direction 1 -4.48996e-011 -4.97056e-027   
     length 0.397201   
     axis 3.17164e-015 90 90   XYZ
    dof rx
    limits (0.0 90.0)
  end
  begin
     id 23
     name lthumb
     direction 0.707107 -6.34981e-011 0.707107   
     length 0.570303   
     axis -90 45 2.85299e-015   XYZ
    dof rx rz
    limits (-45.0 45.0)
           (-45.0 45.0)
  end
  begin
     id 24 
     name rclavicle
     direction -0.961164 0.229034 0.153972   
     length 3.09348  
     axis 0 0 0   XYZ 
    dof ry rz
    limits (-10.0 20.0)
           (-20.0 0.0)
  end
  begin
     id 25 
     name rhumerus
     direction -1 -4.48971e-011 -9.06263e-028  
     length 4.3269   
     axis 180 30 90   XYZ
    dof rx ry rz
    limits (-90.0 60.0)
           (-90.0 90.0)
           (-90.0 90.0)
  end
  begin
     id 26 
     name rradius
     direction -1 -4.48953e-011 1.44659e-027   
     length 3.1896   
     axis 180 30 90   XYZ
    dof rx
    limits (-10.0 170.0)
  end
  begin
     id 27 
     name rwrist
     direction -1 -4.48988e-011 -1.24264e-027   
     length 1.5948   
     axis 1.40095e-015 -90 -90   XYZ
    dof ry
    limits (-180.0 0.0)
  end
  begin
     id 28
     name rhand
     direction -1 -4.49033e-011 -2.48528e-027   
     length 0.464496   
     axis 1.58582e-015 -90 -90   XYZ
    dof rx rz
    limits (-90.0 90.0)
           (-45.0 45.0)
  end
  begin
     id 29
     name rfingers
     direction -1 -4.48905e-011 -4.97056e-027   
     length 0.374489   
     axis 3.17164e-015 -90 -90   XYZ
    dof rx
    limits (0.0 90.0)
  end
  begin
     id 30
     name rthumb
     direction -0.707107 -6.34909e-011 0.707107   
     length 0.537693   
     axis -90 -45 -2.85299e-015   XYZ
    dof rx rz
    limits (-45.0 45.0)
           (-45.0 45.0)
  end
:hierarchy
  begin
    root lhipjoint rhipjoint lowerback
    lhipjoint lfemur
    lfemur ltibia
    ltibia lfoot
    lfoot ltoes
    rhipjoint rfemur
    rfemur rtibia
    rtibia rfoot
    rfoot rtoes
    lowerback upperback
    upperback thorax
    thorax lowerneck lclavicle rclavicle
    lowerneck upperneck
    upperneck head
    lclavicle lhumerus
    lhumerus lradius
    lradius lwrist
    lwrist lhand lthumb
    lhand lfingers
    rclavicle rhumerus
    rhumerus rradius
    rradius rwrist
    rwrist rhand rthumb
    rhand rfingers
  end

#!OML:ASF G:\acrobat\cartwheel_test 2\Patient 1\Session 2\acrobat4.ASF
:FULLY-SPECIFIED
:DEGREES
2563
root 10.1956 20.0459 -6.13796 547.338 -6.32908 186.337
lowerback 5.6542 0.15101 -11.3376
upperback 3.15206 -1.39141 -7.10198
thorax 0.137857 -1.18737 -0.992236
lowerneck -12.2904 0.130871 -0.00962639
upperneck 29.0143 -7.17014 13.5848
head 12.1849 -2.72149 3.8911
rclavicle 2.22639e-014 2.22639e-014
rhumerus 10.434 -39.2012 7.02155
rradius 34.9719
rwrist 7.93133
rhand -35.5661 -38.9896
rfingers 7.12502
rthumb -8.69114 291.209
lclavicle 2.22639e-014 2.22639e-014
lhumerus -16.2751 -7.83287 56.8254
lradius 60.485
lwrist 36.4626
lhand -40.1601 727.438
lfingers 7.12502
lthumb -13.1222 -682.995
rfemur -43.1978 -3.85313 33.6485
rtibia 50.9104
rfoot -10.9757 -3.69269
rtoes -21.4882
lfemur -22.9821 6.36577 -19.115
ltibia 56.4035
lfoot -40.6085 18.8324
ltoes -29.5489
2564
root 10.1513 20.0817 -6.05919 547.314 -6.67662 186.229
lowerback 5.57615 0.0629491 -10.711
upperback 3.12638 -1.33289 -6.50471
thorax 0.159435 -1.10382 -0.708818
lowerneck -12.3963 -0.0903877 -0.505067
upperneck 29.1036 -7.17016 13.1903
head 12.2274 -2.77611 3.83599
rclavicle 6.36111e-015 5.40694e-014
rhumerus 8.9044 -39.6943 7.16272
rradius 34.5218
rwrist 9.33397
rhand -34.677 -40.3172
rfingers 7.12502
rthumb -7.83304 289.848
lclavicle 6.36111e-015 5.40694e-014
lhumerus -16.1688 -6.47847 54.654
lradius 59.8636
lwrist 37.3468
lhand -41.0106 728.058
lfingers 7.12502
lthumb -13.9419 -682.429
rfemur -43.5516 -3.64522 31.6547
rtibia 51.543
rfoot -11.5438 0.438373
rtoes -19.5441
lfemur -23.3105 6.71544 -19.4191
ltibia 56.1581
lfoot -39.7258 18.5275
ltoes -30.5622
2565
root 10.1018 20.1149 -5.98224 547.135 -6.61251 186.316
lowerback 5.44835 0.175091 -9.79131
upperback 3.13309 -1.00942 -6.01982
thorax 0.215144 -0.895422 -0.720451
lowerneck -12.498 -0.328269 -0.760182
upperneck 29.1708 -7.23515 12.7284
head 12.2602 -2.84489 3.70084
rclavicle -1.35174e-014 -8.90555e-014
rhumerus 6.83522 -39.8317 7.63023
rradius 34.0155
rwrist 10.3704
rhand -32.779 -40.4688
rfingers 7.12502
rthumb -6.00088 289.636
lclavicle -1.35174e-014 -8.90555e-014
lhumerus -16.0682 -5.33182 52.2142
lradius 59.4644
lwrist 38.5155
lhand -41.6099 729.234
lfingers 7.12502
lthumb -14.5193 -681.295
rfemur -43.0676 -3.19246 30.0428
rtibia 52.4217
rfoot -12.5366 2.10633
rtoes -19.5115
lfemur -23.4124 7.3123 -19.5662
ltibia 55.9399
lfoot -38.8999 18.2609
ltoes -31.3628
2566
root 10.0535 20.1368 -5.91012 546.966 -6.14915 186.447
lowerback 5.21392 0.384746 -8.86455
upperback 3.06493 -0.569582 -5.62413
thorax 0.2476 -0.631823 -0.837715
lowerneck -12.5847 -0.470636 -0.747077
upperneck 29.3734 -7.23778 12.1236
head 12.3265 -2.88181 3.47361
rclavicle 6.36111e-015 -2.22639e-014
rhumerus 4.73662 -39.4394 7.99661
rradius 33.5987
rwrist 10.3973
rhand -29.9127 -39.7299
rfingers 7.12502
rthumb -3.23312 290.315
lclavicle 6.36111e-015 -2.22639e-014
lhumerus -16.1859 -4.11693 49.5213
lradius 59.1875
lwrist 39.5908
lhand -42.4606 730.777
lfingers 7.12502
lthumb -15.3389 -679.812
rfemur -42.3419 -2.30187 28.566
rtibia 53.4826
rfoot -13.1828 0.971747
rtoes -19.2559
lfemur -23.4003 7.99701 -19.6768
ltibia 55.7096
lfoot -38.4067 17.95
ltoes -31.6694
2567
root 10.0082 20.1569 -5.83879 546.765 -5.58447 186.374
lowerback 5.08654 0.561791 -8.21856
upperback 2.92545 -0.227276 -5.27663
thorax 0.15775 -0.421586 -0.846513
lowerneck -12.5165 -0.496638 -0.749278
upperneck 29.6533 -7.11975 11.5415
head 12.3825 -2.88398 3.27595
rclavicle 1.59028e-014 8.26944e-014
rhumerus 2.82136 -38.5216 8.15557
rradius 33.415
rwrist 9.60861
rhand -29.0896 -39.3953
rfingers 7.12502
rthumb -2.4382 290.639
lclavicle 1.59028e-014 8.26944e-014
lhumerus -16.6594 -2.78717 46.7283
lradius 59.0777
lwrist 40.7001
lhand -43.0927 731.669
lfingers 7.12502
lthumb -15.9477 -678.967
rfemur -41.3193 -1.39735 27.036
rtibia 54.7521
rfoot -14.1521 -0.505723
rtoes -19.8842
lfemur -23.3284 8.54985 -19.9981
ltibia 55.4768
lfoot -37.8094 17.8929
ltoes -32.1984
2568
root 9.96535 20.1884 -5.76813 546.674 -5.122 186.037
lowerback 4.90192 0.585978 -7.91241
upperback 2.77314 -0.111518 -4.95431
thorax 0.0996502 -0.334196 -0.684891
lowerneck -12.3969 -0.42293 -0.875166
upperneck 29.8862 -6.85932 11.0724
head 12.4059 -2.83292 3.16266
rclavicle 8.74653e-015 8.26944e-014
rhumerus 1.36807 -37.5277 8.008
rradius 33.1167
rwrist 9.3308
rhand -26.0018 -35.7689
rfingers 7.12502
rthumb 0.544037 294.252
lclavicle 8.74653e-015 8.26944e-014
lhumerus -17.4106 -1.38009 43.8171
lradius 59.0738
lwrist 41.7739
lhand -43.4945 731.608
lfingers 7.12502
lthumb -16.3345 -679.06
rfemur -40.1665 -0.712983 25.4133
rtibia 56.0766
rfoot -15.2616 -0.717703
rtoes -20.5919
lfemur -23.3856 8.93312 -20.6274
ltibia 55.2367
lfoot -36.8822 18.0056
ltoes -32.7993
2569
root 9.92922 20.2197 -5.69877 546.778 -4.7739 185.745
lowerback 4.45031 0.654426 -7.48343
upperback 2.67195 0.0858566 -4.77913
thorax 0.239786 -0.216368 -0.747971
lowerneck -12.4181 -0.467653 -0.720396
upperneck 29.9874 -6.84618 10.6931
head 12.4279 -2.8445 2.99387
rclavicle 2.46493e-014 1.11319e-013
rhumerus -0.224721 -36.8913 7.90436
rradius 32.5558
rwrist 9.92913
rhand -23.865 -30.9675
rfingers 7.12502
rthumb 2.60773 299.069
lclavicle 2.46493e-014 1.11319e-013
lhumerus -17.7456 -0.361347 40.6713
lradius 59.0752
lwrist 42.4851
lhand -43.9353 732.331
lfingers 7.12502
lthumb -16.7589 -678.372
rfemur -39.0564 -0.0328368 24.0334
rtibia 57.411
rfoot -16.3305 -0.457105
rtoes -21.4135
lfemur -23.705 9.29164 -21.2156
ltibia 55.0268
lfoot -35.9225 18.0934
ltoes -33.4675
2570
root 9.89834 20.2463 -5.63006 546.937 -4.50191 185.727
lowerback 3.91017 0.687441 -6.89852
upperback 2.59309 0.269157 -4.43266
thorax 0.455505 -0.0977514 -0.717649
lowerneck -12.6309 -0.577888 -0.705629
upperneck 30.1387 -6.81484 10.1532
head 12.5041 -2.86219 2.79256
rclavicle -3.18055e-015 7.31528e-014
rhumerus -1.38766 -36.3861 7.86907
rradius 31.9763
rwrist 10.6445
rhand -24.1579 -29.4025
rfingers 7.12502
rthumb 2.32482 300.63
lclavicle -3.18055e-015 7.31528e-014
lhumerus -18.1757 0.860496 37.6548
lradius 59.1277
lwrist 42.8678
lhand -44.0076 734.107
lfingers 7.12502
lthumb -16.8286 -676.602
rfemur -37.853 0.738811 23.165
rtibia 58.7127
rfoot -17.2662 -0.481899
rtoes -22.2882
lfemur -24.1581 9.74578 -21.5139
ltibia 54.8529
lfoot -35.0855 18.2093
ltoes -34.1277
2571
root 9.86678 20.2661 -5.55979 547.127 -4.28489 185.776
lowerback 3.43637 0.590675 -6.42438
upperback 2.42852 0.275189 -3.85935
thorax 0.552025 -0.0575192 -0.38542
lowerneck -12.8114 -0.635911 -0.88558
upperneck 30.4386 -6.59629 9.36493
head 12.6121 -2.84946 2.5601
rclavicle 1.19271e-014 5.725e-014
rhumerus -1.69845 -36.084 7.61576
rradius 31.4671
rwrist 11.4541
rhand -24.0546 -29.5163
rfingers 7.12502
rthumb 2.42463 300.518
lclavicle 1.19271e-014 5.725e-014
lhumerus -19.1411 2.35871 34.8425
lradius 59.141
lwrist 42.978
lhand -43.9531 735.231
lfingers 7.12502
lthumb -16.7761 -675.474
rfemur -36.4793 1.28881 22.6427
rtibia 59.9606
rfoot -17.6853 -0.904516
rtoes -22.2077
lfemur -24.6496 10.2151 -21.7731
ltibia 54.7195
lfoot -34.4475 18.3423
ltoes -34.3904
2572
root 9.83437 20.2766 -5.485 547.362 -4.17548 185.669
lowerback 2.99166 0.560466 -6.00391
upperback 2.21568 0.336911 -3.43297
thorax 0.580129 0.00469078 -0.178203
lowerneck -12.6066 -0.796291 -0.937185
upperneck 30.4547 -6.55127 8.67019
head 12.5377 -2.9112 2.31283
rclavicle 1.59028e-014 8.5875e-014
rhumerus -2.30488 -35.9107 7.56822
rradius 31.146
rwrist 11.9639
rhand -23.4203 -29.232
rfingers 7.12502
rthumb 3.03724 300.81
lclavicle 1.59028e-014 8.5875e-014
lhumerus -19.6799 3.67805 32.0744
lradius 58.8485
lwrist 42.8905
lhand -43.0536 733.885
lfingers 7.12502
lthumb -15.91 -676.748
rfemur -34.9449 1.35974 22.2382
rtibia 61.1109
rfoot -17.8052 -1.97308
rtoes -21.8003
lfemur -25.1745 10.4009 -22.2119
ltibia 54.5984
lfoot -33.9391 18.5567
ltoes -34.6815
2573
root 9.80576 20.2843 -5.40728 547.51 -4.22824 185.644
lowerback 2.57896 0.583507 -5.48104
upperback 2.09268 0.455779 -3.07338
thorax 0.681539 0.0882163 -0.0986837
lowerneck -12.2579 -1.01532 -0.982734
upperneck 30.2156 -6.61679 8.19672
head 12.3473 -2.9995 2.134
rclavicle 1.59028e-015 -3.81667e-014
rhumerus -3.36896 -35.6252 7.84987
rradius 31.1021
rwrist 11.7751
rhand -23.0931 -29.0327
rfingers 7.12502
rthumb 3.35318 301.014
lclavicle 1.59028e-015 -3.81667e-014
lhumerus -19.5607 5.26978 29.3932
lradius 58.2531
lwrist 42.9195
lhand -40.9651 731.693
lfingers 7.12502
lthumb -13.898 -678.792
rfemur -33.1403 1.1342 22.163
rtibia 62.0847
rfoot -17.9169 -3.59686
rtoes -21.5016
lfemur -25.6404 10.3033 -22.4959
ltibia 54.4649
lfoot -33.4297 18.7671
ltoes -35.1116
2574
root 9.77967 20.2972 -5.32951 547.537 -4.38119 185.754
lowerback 2.34443 0.596629 -4.88536
upperback 1.94482 0.541394 -2.66955
thorax 0.659432 0.157763 -0.0147616
lowerneck -11.8217 -1.21797 -0.782035
upperneck 30.0709 -6.70698 7.54268
head 12.1658 -3.10248 1.84383
rclavicle -2.18663e-014 -1.11319e-014
rhumerus -4.46128 -35.076 8.18999
rradius 31.3081
rwrist 11.2737
rhand -23.3437 -29.8428
rfingers 7.12502
rthumb 3.11118 300.2
lclavicle -2.18663e-014 -1.11319e-014
lhumerus -19.3602 6.77797 26.7402
lradius 57.6818
lwrist 43.1993
lhand -39.7871 731.174
lfingers 7.12502
lthumb -12.7626 -679.236
rfemur -31.0294 0.831958 22.4223
rtibia 62.8176
rfoot -17.9939 -5.29732
rtoes -21.4426
lfemur -25.9793 10.2136 -22.5779
ltibia 54.2927
lfoot -32.9585 18.7493
ltoes -35.0866
